<svg xmlns="http://www.w3.org/2000/svg" width="131.55" height="35" viewBox="0 0 131.55 35"><rect class="svg__rect" x="0" y="0" width="54.809999999999995" height="35" fill="#3C9AD5"/><rect class="svg__rect" x="52.809999999999995" y="0" width="78.74000000000001" height="35" fill="#3BC4F3"/><path class="svg__text" d="M15.78 22L14.31 22L14.31 13.47L15.78 13.47L15.78 22ZM22.27 14.66L19.64 14.66L19.64 13.47L26.40 13.47L26.40 14.66L23.74 14.66L23.74 22L22.27 22L22.27 14.66ZM30.71 16.02L29.77 16.02L29.77 13L30.86 13L30.86 13.73L30.71 16.02ZM34.74 19.42L34.74 19.42L36.23 19.42Q36.23 20.15 36.71 20.55Q37.19 20.95 38.08 20.95L38.08 20.95Q38.86 20.95 39.25 20.63Q39.64 20.32 39.64 19.80L39.64 19.80Q39.64 19.24 39.24 18.94Q38.84 18.63 37.81 18.32Q36.78 18.01 36.17 17.63L36.17 17.63Q35.01 16.90 35.01 15.72L35.01 15.72Q35.01 14.69 35.85 14.02Q36.69 13.35 38.03 13.35L38.03 13.35Q38.92 13.35 39.62 13.68Q40.31 14.01 40.71 14.61Q41.11 15.22 41.11 15.96L41.11 15.96L39.64 15.96Q39.64 15.29 39.22 14.91Q38.80 14.54 38.02 14.54L38.02 14.54Q37.29 14.54 36.89 14.85Q36.49 15.16 36.49 15.71L36.49 15.71Q36.49 16.18 36.92 16.50Q37.36 16.81 38.35 17.10Q39.35 17.40 39.95 17.78Q40.56 18.16 40.84 18.65Q41.12 19.13 41.12 19.79L41.12 19.79Q41.12 20.86 40.30 21.49Q39.48 22.12 38.08 22.12L38.08 22.12Q37.16 22.12 36.38 21.77Q35.60 21.43 35.17 20.83Q34.74 20.22 34.74 19.42Z" fill="#FFFFFF"/><path class="svg__text" d="M69.08 22L66.35 13.60L68.80 13.60L70.49 18.96L72.27 13.60L74.45 13.60L76.14 19.01L77.91 13.60L80.18 13.60L77.45 22L74.91 22L73.30 16.89L71.62 22L69.08 22ZM84.26 17.80L84.26 17.80Q84.26 16.55 84.86 15.55Q85.47 14.56 86.53 14.00Q87.59 13.43 88.92 13.43L88.92 13.43Q90.25 13.43 91.32 14.00Q92.38 14.56 92.99 15.55Q93.59 16.55 93.59 17.80L93.59 17.80Q93.59 19.05 92.99 20.04Q92.38 21.04 91.32 21.60Q90.26 22.17 88.92 22.17L88.92 22.17Q87.59 22.17 86.53 21.60Q85.47 21.04 84.86 20.04Q84.26 19.05 84.26 17.80ZM86.66 17.80L86.66 17.80Q86.66 18.51 86.96 19.05Q87.26 19.60 87.78 19.90Q88.29 20.20 88.92 20.20L88.92 20.20Q89.56 20.20 90.08 19.90Q90.59 19.60 90.89 19.05Q91.19 18.51 91.19 17.80L91.19 17.80Q91.19 17.09 90.89 16.54Q90.59 16 90.08 15.70Q89.56 15.40 88.92 15.40L88.92 15.40Q88.28 15.40 87.77 15.70Q87.26 16 86.96 16.54Q86.66 17.09 86.66 17.80ZM100.70 22L98.32 22L98.32 13.60L102.17 13.60Q103.31 13.60 104.15 13.98Q104.98 14.35 105.44 15.06Q105.90 15.76 105.90 16.71L105.90 16.71Q105.90 17.62 105.47 18.30Q105.04 18.98 104.25 19.36L104.25 19.36L106.06 22L103.52 22L102.00 19.77L100.70 19.77L100.70 22ZM100.70 15.47L100.70 17.93L102.02 17.93Q102.75 17.93 103.12 17.61Q103.50 17.29 103.50 16.71L103.50 16.71Q103.50 16.12 103.12 15.79Q102.75 15.47 102.02 15.47L102.02 15.47L100.70 15.47ZM113.04 22L110.69 22L110.69 13.60L113.04 13.60L113.04 17.09L116.29 13.60L118.91 13.60L115.48 17.32L119.09 22L116.33 22L113.93 18.95L113.04 19.90L113.04 22Z" fill="#FFFFFF" x="65.81"/></svg>