<svg xmlns="http://www.w3.org/2000/svg" width="220.77" height="35" viewBox="0 0 220.77 35"><rect class="svg__rect" x="0" y="0" width="127.25" height="35" fill="#C1D72F"/><rect class="svg__rect" x="125.25" y="0" width="95.52000000000001" height="35" fill="#5D9741"/><path class="svg__text" d="M15.70 22L14.22 22L14.22 13.47L17.48 13.47Q18.91 13.47 19.75 14.21Q20.59 14.96 20.59 16.18L20.59 16.18Q20.59 17.44 19.77 18.13Q18.95 18.83 17.46 18.83L17.46 18.83L15.70 18.83L15.70 22ZM15.70 14.66L15.70 17.64L17.48 17.64Q18.27 17.64 18.69 17.27Q19.10 16.90 19.10 16.19L19.10 16.19Q19.10 15.50 18.68 15.09Q18.26 14.68 17.52 14.66L17.52 14.66L15.70 14.66ZM24.61 18.00L24.61 18.00L24.61 17.52Q24.61 16.28 25.05 15.32Q25.49 14.37 26.30 13.86Q27.10 13.35 28.14 13.35Q29.19 13.35 29.99 13.85Q30.80 14.35 31.24 15.29Q31.68 16.23 31.68 17.48L31.68 17.48L31.68 17.96Q31.68 19.21 31.25 20.16Q30.82 21.10 30.01 21.61Q29.21 22.12 28.16 22.12L28.16 22.12Q27.12 22.12 26.31 21.61Q25.50 21.10 25.05 20.17Q24.61 19.23 24.61 18.00ZM26.09 17.46L26.09 17.96Q26.09 19.36 26.64 20.13Q27.18 20.90 28.16 20.90L28.16 20.90Q29.14 20.90 29.67 20.15Q30.20 19.40 30.20 17.96L30.20 17.96L30.20 17.51Q30.20 16.09 29.67 15.34Q29.13 14.58 28.14 14.58L28.14 14.58Q27.18 14.58 26.64 15.33Q26.10 16.09 26.09 17.46L26.09 17.46ZM37.53 22L35.56 13.47L37.03 13.47L38.36 19.88L39.99 13.47L41.23 13.47L42.84 19.89L44.15 13.47L45.62 13.47L43.65 22L42.24 22L40.61 15.77L38.96 22L37.53 22ZM55.27 22L49.70 22L49.70 13.47L55.23 13.47L55.23 14.66L51.18 14.66L51.18 17.02L54.68 17.02L54.68 18.19L51.18 18.19L51.18 20.82L55.27 20.82L55.27 22ZM60.95 22L59.47 22L59.47 13.47L62.47 13.47Q63.95 13.47 64.75 14.13Q65.55 14.79 65.55 16.05L65.55 16.05Q65.55 16.90 65.14 17.48Q64.72 18.06 63.99 18.37L63.99 18.37L65.90 21.92L65.90 22L64.31 22L62.60 18.71L60.95 18.71L60.95 22ZM60.95 14.66L60.95 17.52L62.48 17.52Q63.23 17.52 63.65 17.15Q64.07 16.77 64.07 16.11L64.07 16.11Q64.07 15.43 63.68 15.05Q63.29 14.68 62.52 14.66L62.52 14.66L60.95 14.66ZM75.52 22L69.95 22L69.95 13.47L75.48 13.47L75.48 14.66L71.43 14.66L71.43 17.02L74.93 17.02L74.93 18.19L71.43 18.19L71.43 20.82L75.52 20.82L75.52 22ZM82.17 22L79.72 22L79.72 13.47L82.24 13.47Q83.37 13.47 84.25 13.97Q85.12 14.48 85.60 15.40Q86.08 16.33 86.08 17.52L86.08 17.52L86.08 17.95Q86.08 19.16 85.60 20.08Q85.12 21.00 84.22 21.50Q83.33 22 82.17 22L82.17 22ZM81.20 14.66L81.20 20.82L82.17 20.82Q83.33 20.82 83.96 20.09Q84.58 19.36 84.59 17.99L84.59 17.99L84.59 17.52Q84.59 16.13 83.99 15.40Q83.39 14.66 82.24 14.66L82.24 14.66L81.20 14.66ZM99.64 22L96.52 22L96.52 13.47L99.45 13.47Q100.89 13.47 101.65 14.05Q102.41 14.63 102.41 15.78L102.41 15.78Q102.41 16.36 102.09 16.83Q101.77 17.30 101.16 17.56L101.16 17.56Q101.86 17.75 102.23 18.26Q102.61 18.78 102.61 19.51L102.61 19.51Q102.61 20.71 101.84 21.36Q101.07 22 99.64 22L99.64 22ZM98.01 18.15L98.01 20.82L99.65 20.82Q100.35 20.82 100.74 20.47Q101.14 20.13 101.14 19.51L101.14 19.51Q101.14 18.18 99.78 18.15L99.78 18.15L98.01 18.15ZM98.01 14.66L98.01 17.06L99.46 17.06Q100.15 17.06 100.54 16.75Q100.93 16.43 100.93 15.86L100.93 15.86Q100.93 15.23 100.57 14.95Q100.21 14.66 99.45 14.66L99.45 14.66L98.01 14.66ZM109.12 18.86L106.26 13.47L107.90 13.47L109.87 17.51L111.83 13.47L113.47 13.47L110.61 18.86L110.61 22L109.12 22L109.12 18.86Z" fill="#FFFFFF"/><path class="svg__text" d="M141.82 22L139.44 22L139.44 13.60L143.28 13.60Q144.42 13.60 145.26 13.98Q146.10 14.35 146.56 15.06Q147.01 15.76 147.01 16.71L147.01 16.71Q147.01 17.62 146.59 18.30Q146.16 18.98 145.37 19.36L145.37 19.36L147.18 22L144.64 22L143.11 19.77L141.82 19.77L141.82 22ZM141.82 15.47L141.82 17.93L143.14 17.93Q143.87 17.93 144.24 17.61Q144.61 17.29 144.61 16.71L144.61 16.71Q144.61 16.12 144.24 15.79Q143.87 15.47 143.14 15.47L143.14 15.47L141.82 15.47ZM153.22 22L150.79 22L154.50 13.60L156.85 13.60L160.56 22L158.09 22L157.43 20.37L153.88 20.37L153.22 22ZM155.66 15.93L154.57 18.61L156.73 18.61L155.66 15.93ZM164.13 21.24L164.13 21.24L164.91 19.49Q165.47 19.86 166.22 20.09Q166.96 20.32 167.68 20.32L167.68 20.32Q169.05 20.32 169.05 19.64L169.05 19.64Q169.05 19.28 168.66 19.11Q168.27 18.93 167.40 18.74L167.40 18.74Q166.46 18.53 165.82 18.30Q165.18 18.06 164.73 17.55Q164.28 17.03 164.28 16.16L164.28 16.16Q164.28 15.39 164.69 14.77Q165.11 14.15 165.95 13.79Q166.78 13.43 167.99 13.43L167.99 13.43Q168.82 13.43 169.62 13.62Q170.43 13.80 171.04 14.17L171.04 14.17L170.31 15.93Q169.11 15.28 167.98 15.28L167.98 15.28Q167.27 15.28 166.95 15.49Q166.63 15.70 166.63 16.04L166.63 16.04Q166.63 16.37 167.01 16.54Q167.39 16.71 168.24 16.89L168.24 16.89Q169.20 17.10 169.83 17.33Q170.46 17.56 170.93 18.07Q171.39 18.58 171.39 19.46L171.39 19.46Q171.39 20.21 170.97 20.83Q170.55 21.44 169.71 21.80Q168.87 22.17 167.67 22.17L167.67 22.17Q166.65 22.17 165.69 21.92Q164.73 21.67 164.13 21.24ZM175.54 17.80L175.54 17.80Q175.54 16.54 176.14 15.54Q176.73 14.55 177.78 13.99Q178.84 13.43 180.15 13.43L180.15 13.43Q181.31 13.43 182.23 13.84Q183.15 14.25 183.77 15.02L183.77 15.02L182.26 16.39Q181.44 15.40 180.28 15.40L180.28 15.40Q179.59 15.40 179.06 15.70Q178.53 16 178.23 16.54Q177.93 17.09 177.93 17.80L177.93 17.80Q177.93 18.51 178.23 19.05Q178.53 19.60 179.06 19.90Q179.59 20.20 180.28 20.20L180.28 20.20Q181.44 20.20 182.26 19.22L182.26 19.22L183.77 20.58Q183.16 21.35 182.23 21.76Q181.31 22.17 180.15 22.17L180.15 22.17Q178.84 22.17 177.78 21.61Q176.73 21.05 176.14 20.05Q175.54 19.06 175.54 17.80ZM189.72 22L187.30 22L191.01 13.60L193.35 13.60L197.06 22L194.60 22L193.94 20.37L190.39 20.37L189.72 22ZM192.16 15.93L191.08 18.61L193.24 18.61L192.16 15.93ZM203.60 22L201.22 22L201.22 13.60L205.06 13.60Q206.21 13.60 207.04 13.98Q207.88 14.35 208.34 15.06Q208.80 15.76 208.80 16.71L208.80 16.71Q208.80 17.62 208.37 18.30Q207.94 18.98 207.15 19.36L207.15 19.36L208.96 22L206.42 22L204.89 19.77L203.60 19.77L203.60 22ZM203.60 15.47L203.60 17.93L204.92 17.93Q205.65 17.93 206.02 17.61Q206.39 17.29 206.39 16.71L206.39 16.71Q206.39 16.12 206.02 15.79Q205.65 15.47 204.92 15.47L204.92 15.47L203.60 15.47Z" fill="#FFFFFF" x="138.25"/></svg>